<?xml version="1.0" encoding="UTF-8" standalone="no"?>
<!-- Created with Inkscape (http://www.inkscape.org/) -->

<svg
   xmlns:dc="http://purl.org/dc/elements/1.1/"
   xmlns:cc="http://creativecommons.org/ns#"
   xmlns:rdf="http://www.w3.org/1999/02/22-rdf-syntax-ns#"
   xmlns:svg="http://www.w3.org/2000/svg"
   xmlns="http://www.w3.org/2000/svg"
   xmlns:sodipodi="http://sodipodi.sourceforge.net/DTD/sodipodi-0.dtd"
   xmlns:inkscape="http://www.inkscape.org/namespaces/inkscape"
   width="1024"
   height="500"
   viewBox="0 0 1024 499.99998"
   id="svg2"
   version="1.1"
   inkscape:version="0.91 r13725"
   sodipodi:docname="feature.svg"
   inkscape:export-filename="/home/julijonas/progr/android/LibreExplorer/branding/feature.png"
   inkscape:export-xdpi="90"
   inkscape:export-ydpi="90">
  <defs
     id="defs4">
    <radialGradient
       gradientUnits="userSpaceOnUse"
       gradientTransform="matrix(1,0,0,0.10447761,0,50.597015)"
       r="33.5"
       cy="56.5"
       cx="32.5"
       id="radialGradient3964">
      <stop
         id="stop7796"
         style="stop-color:#000;stop-opacity:1" />
      <stop
         id="stop7798"
         style="stop-color:#000;stop-opacity:0"
         offset="1" />
    </radialGradient>
    <radialGradient
       gradientUnits="userSpaceOnUse"
       gradientTransform="matrix(1,0,0,0.10447761,0,50.597015)"
       r="33.5"
       cy="56.5"
       cx="32.5"
       id="radialGradient3964-5">
      <stop
         id="stop7921"
         style="stop-color:#000;stop-opacity:1" />
      <stop
         id="stop7923"
         style="stop-color:#000;stop-opacity:0"
         offset="1" />
    </radialGradient>
    <radialGradient
       gradientUnits="userSpaceOnUse"
       gradientTransform="matrix(1,0,0,0.10447761,0,50.597015)"
       r="33.5"
       cy="56.5"
       cx="32.5"
       id="radialGradient3964-1">
      <stop
         id="stop8485"
         style="stop-color:#000;stop-opacity:1" />
      <stop
         id="stop8487"
         style="stop-color:#000;stop-opacity:0"
         offset="1" />
    </radialGradient>
    <radialGradient
       gradientUnits="userSpaceOnUse"
       gradientTransform="matrix(1,0,0,0.10447761,0,50.597015)"
       r="33.5"
       cy="56.5"
       cx="32.5"
       id="radialGradient3964-50">
      <stop
         id="stop8837"
         style="stop-color:#000;stop-opacity:1" />
      <stop
         id="stop8839"
         style="stop-color:#000;stop-opacity:0"
         offset="1" />
    </radialGradient>
    <radialGradient
       gradientUnits="userSpaceOnUse"
       gradientTransform="matrix(1,0,0,0.10447761,0,50.597015)"
       r="33.5"
       cy="56.5"
       cx="32.5"
       id="radialGradient3964-2">
      <stop
         id="stop9688"
         style="stop-color:#000;stop-opacity:1" />
      <stop
         id="stop9690"
         style="stop-color:#000;stop-opacity:0"
         offset="1" />
    </radialGradient>
    <radialGradient
       gradientUnits="userSpaceOnUse"
       gradientTransform="matrix(1,0,0,0.10447761,0,50.597015)"
       r="33.5"
       cy="56.5"
       cx="32.5"
       id="radialGradient3964-4">
      <stop
         id="stop10009"
         style="stop-color:#000;stop-opacity:1" />
      <stop
         id="stop10011"
         style="stop-color:#000;stop-opacity:0"
         offset="1" />
    </radialGradient>
    <radialGradient
       gradientUnits="userSpaceOnUse"
       gradientTransform="matrix(1,0,0,0.10447761,0,50.597015)"
       r="33.5"
       cy="56.5"
       cx="32.5"
       id="radialGradient3964-8">
      <stop
         id="stop10492"
         style="stop-color:#000;stop-opacity:1" />
      <stop
         id="stop10494"
         style="stop-color:#000;stop-opacity:0"
         offset="1" />
    </radialGradient>
  </defs>
  <sodipodi:namedview
     id="base"
     pagecolor="#744500"
     bordercolor="#666666"
     borderopacity="1.0"
     inkscape:pageopacity="1"
     inkscape:pageshadow="2"
     inkscape:zoom="0.98994949"
     inkscape:cx="189.74904"
     inkscape:cy="236.89256"
     inkscape:document-units="px"
     inkscape:current-layer="layer1"
     showgrid="false"
     units="px"
     inkscape:window-width="1366"
     inkscape:window-height="724"
     inkscape:window-x="0"
     inkscape:window-y="0"
     inkscape:window-maximized="1" />
  <metadata
     id="metadata7">
    <rdf:RDF>
      <cc:Work
         rdf:about="">
        <dc:format>image/svg+xml</dc:format>
        <dc:type
           rdf:resource="http://purl.org/dc/dcmitype/StillImage" />
        <dc:title></dc:title>
      </cc:Work>
    </rdf:RDF>
  </metadata>
  <g
     inkscape:label="Layer 1"
     inkscape:groupmode="layer"
     id="layer1"
     transform="translate(0,-552.36228)">
    <g
       id="g7800"
       transform="matrix(3.4691613,0,0,3.4691613,287.73254,-2865.6708)">
      <path
         id="path7802"
         style="opacity:0.6;fill:url(#radialGradient3964);fill-opacity:1;stroke:none"
         transform="matrix(1.1343284,0,0,1.1428571,-4.8656716,979.79077)"
         d="m 66,56.5 a 33.5,3.5 0 1 1 -67,0 33.5,3.5 0 1 1 67,0 z"
         inkscape:connector-curvature="0" />
      <path
         id="path7804"
         style="fill:#ef6c00;fill-opacity:1;stroke:none"
         d="m 0,997.42 0,42.823 64,0 0,-21.412 -3.048,-18.353 -23.952,-0.118 -3,-6 -30.952,0 C 1.524,994.36 0,995.889 0,997.419 Z"
         inkscape:connector-curvature="0" />
      <rect
         id="rect7806"
         style="fill:#fffdf0;fill-opacity:1;stroke:none"
         y="1002.36"
         x="5"
         height="11.882"
         width="31.570999" />
      <path
         id="path7808"
         style="opacity:0.02999998;fill:#000000;fill-opacity:1;stroke:none"
         transform="translate(0,988.3622)"
         d="M 3.0625,6 C 1.538691,6 0,7.53308 0,9.0625 l 0,2 C 0,9.53308 1.538691,8 3.0625,8 L 33,8 36,14 60.9375,14.125 64,32.46875 l 0,-2 L 60.9375,12.125 37,12 34,6 Z"
         inkscape:connector-curvature="0" />
      <path
         id="path7810"
         style="fill:#ffa726;fill-opacity:1;stroke:none"
         d="m 64,1003.54 0,42.824 -64,0 0,-40 30,0 3,-6 27.952,0.118 c 1.524,0 3.048,1.529 3.048,3.059 z"
         inkscape:connector-curvature="0" />
      <path
         id="path7812"
         style="opacity:0.15;fill:#000000;fill-opacity:1;stroke:none"
         d="m 0,1044.36 0,2 64,0 0,-2 z"
         inkscape:connector-curvature="0" />
      <path
         id="path7814"
         style="opacity:0.02999998;fill:#000000;fill-opacity:1;stroke:none"
         transform="translate(0,988.3622)"
         d="m 33,12 -3,6 -30,0 0,2 31,0 3,-6 26.938,0.125 c 1.524,0 3.063,1.533 3.063,3.063 l 0,-2 c 0,-1.529 -1.539,-3.063 -3.063,-3.063 z"
         inkscape:connector-curvature="0" />
      <g
         id="g7816"
         style="opacity:1"
         transform="matrix(2,0,0,2,60.84253,-1040.5912)">
        <g
           id="g7818"
           style="fill:#b17621;fill-opacity:1"
           transform="translate(-22.421265,1025.4767)">
          <g
             id="g7820"
             style="fill-rule:evenodd"
             transform="translate(0,-1036.3622)">
            <path
               id="path7822"
               d="m 1,1046.36 4,-5 3.282,3.678 2.218,-2.178 4.5,6.5 -3,2 -9,0 z"
               inkscape:connector-curvature="0" />
          </g>
        </g>
        <path
           id="path7824"
           style="fill:#b17621;fill-opacity:1"
           d="m -19.421,1026.48 c -1.108,0 -2,0.892 -2,2 l 0,10 c 0,1.108 0.892,2 2,2 l 10,0 c 1.108,0 2,-0.892 2,-2 l 0,-10 c 0,-1.108 -0.892,-2 -2,-2 z m 0,2 10,0 0,10 -10,0 z"
           inkscape:connector-curvature="0" />
      </g>
    </g>
    <flowRoot
       xml:space="preserve"
       id="flowRoot7846"
       style="fill:black;stroke:none;stroke-opacity:1;stroke-width:1px;stroke-linejoin:miter;stroke-linecap:butt;fill-opacity:1;font-family:sans-serif;font-style:normal;font-weight:normal;font-size:40px;line-height:125%;letter-spacing:0px;word-spacing:0px"><flowRegion
         id="flowRegion7848"><rect
           id="rect7850"
           width="287.89346"
           height="181.82745"
           x="396.98996"
           y="208.06592" /></flowRegion><flowPara
         id="flowPara7852" /></flowRoot>    <flowRoot
       xml:space="preserve"
       id="flowRoot7854"
       style="fill:black;stroke:none;stroke-opacity:1;stroke-width:1px;stroke-linejoin:miter;stroke-linecap:butt;fill-opacity:1;font-family:sans-serif;font-style:normal;font-weight:normal;font-size:40px;line-height:125%;letter-spacing:0px;word-spacing:0px"><flowRegion
         id="flowRegion7856"><rect
           id="rect7858"
           width="405.07117"
           height="258.59906"
           x="260.61935"
           y="128.26387" /></flowRegion><flowPara
         id="flowPara7860" /></flowRoot>    <g
       id="g7925"
       transform="matrix(3.7310421,0,0,3.7310421,548.05138,-3115.973)">
      <path
         id="path7927"
         style="opacity:0.6;fill:url(#radialGradient3964-5);fill-opacity:1;stroke:none"
         transform="matrix(1.1343284,0,0,1.1428571,-4.8656716,979.79077)"
         d="M 66,56.5 C 66,58.433 51.002,60 32.5,60 13.998,60 -1,58.433 -1,56.5 -1,54.567 13.998,53 32.5,53 51.002,53 66,54.567 66,56.5 Z"
         inkscape:connector-curvature="0" />
      <path
         id="path7929"
         style="fill:#ef6c00;fill-opacity:1;stroke:none"
         d="m 0,997.42 0,42.823 64,0 0,-21.412 -3.048,-18.353 -23.952,-0.118 -3,-6 -30.952,0 C 1.524,994.36 0,995.889 0,997.419 Z"
         inkscape:connector-curvature="0" />
      <rect
         id="rect7931"
         style="fill:#fffdf0;fill-opacity:1;stroke:none"
         y="1002.36"
         x="5"
         height="11.882"
         width="31.570999" />
      <path
         id="path7933"
         style="opacity:0.02999998;fill:#000000;fill-opacity:1;stroke:none"
         transform="translate(0,988.3622)"
         d="M 3.0625,6 C 1.538691,6 0,7.53308 0,9.0625 l 0,2 C 0,9.53308 1.538691,8 3.0625,8 L 33,8 36,14 60.9375,14.125 64,32.46875 l 0,-2 L 60.9375,12.125 37,12 34,6 Z"
         inkscape:connector-curvature="0" />
      <path
         id="path7935"
         style="fill:#ffa726;fill-opacity:1;stroke:none"
         d="m 64,1003.54 0,42.824 -64,0 0,-40 30,0 3,-6 27.952,0.118 c 1.524,0 3.048,1.529 3.048,3.059 z"
         inkscape:connector-curvature="0" />
      <path
         id="path7937"
         style="opacity:0.15;fill:#000000;fill-opacity:1;stroke:none"
         d="m 0,1044.36 0,2 64,0 0,-2 z"
         inkscape:connector-curvature="0" />
      <path
         id="path7939"
         style="opacity:0.02999998;fill:#000000;fill-opacity:1;stroke:none"
         transform="translate(0,988.3622)"
         d="m 33,12 -3,6 -30,0 0,2 31,0 3,-6 26.938,0.125 c 1.524,0 3.063,1.533 3.063,3.063 l 0,-2 c 0,-1.529 -1.539,-3.063 -3.063,-3.063 z"
         inkscape:connector-curvature="0" />
      <g
         id="g7941"
         style="opacity:1">
        <rect
           id="rect7943"
           style="opacity:1;fill:#b17621;fill-opacity:1;stroke:none"
           width="4"
           height="16"
           x="746.38"
           y="706.09003"
           rx="2"
           transform="matrix(0.70710678,0.70710678,-0.70710678,0.70710678,0,0)" />
        <path
           id="path7945"
           style="opacity:1;fill:#b17621;fill-opacity:1;stroke:none"
           d="m 36,24 c -5.523,0 -10,4.477 -10,10 0,5.523 4.477,10 10,10 5.523,0 10,-4.477 10,-10 0,-5.523 -4.477,-10 -10,-10 z m 0,3 c 3.866,0 7,3.134 7,7 0,3.866 -3.134,7 -7,7 -3.866,0 -7,-3.134 -7,-7 0,-3.866 3.134,-7 7,-7 z"
           transform="translate(0,988.3622)"
           inkscape:connector-curvature="0" />
      </g>
    </g>
    <g
       id="g8489"
       transform="matrix(4.3036553,0,0,4.3036553,339.35503,-3485.3464)">
      <path
         id="path8491"
         style="opacity:0.6;fill:url(#radialGradient3964-1);fill-opacity:1;stroke:none"
         transform="matrix(1.1343284,0,0,1.1428571,-4.8656716,979.79077)"
         d="m 66,56.5 a 33.5,3.5 0 1 1 -67,0 33.5,3.5 0 1 1 67,0 z"
         inkscape:connector-curvature="0" />
      <path
         id="path8493"
         style="fill:#ef6c00;fill-opacity:1;stroke:none"
         d="m 0,997.42 0,42.823 64,0 0,-21.412 -3.048,-18.353 -23.952,-0.118 -3,-6 -30.952,0 C 1.524,994.36 0,995.889 0,997.419 Z"
         inkscape:connector-curvature="0" />
      <rect
         id="rect8495"
         style="fill:#fffdf0;fill-opacity:1;stroke:none"
         y="1002.36"
         x="5"
         height="11.882"
         width="31.570999" />
      <path
         id="path8497"
         style="opacity:0.02999998;fill:#000000;fill-opacity:1;stroke:none"
         transform="translate(0,988.3622)"
         d="M 3.0625,6 C 1.538691,6 0,7.53308 0,9.0625 l 0,2 C 0,9.53308 1.538691,8 3.0625,8 L 33,8 36,14 60.9375,14.125 64,32.46875 l 0,-2 L 60.9375,12.125 37,12 34,6 Z"
         inkscape:connector-curvature="0" />
      <path
         id="path8499"
         style="fill:#ffa726;fill-opacity:1;stroke:none"
         d="m 64,1003.54 0,42.824 -64,0 0,-40 30,0 3,-6 27.952,0.118 c 1.524,0 3.048,1.529 3.048,3.059 z"
         inkscape:connector-curvature="0" />
      <path
         id="path8501"
         style="opacity:0.15;fill:#000000;fill-opacity:1;stroke:none"
         d="m 0,1044.36 0,2 64,0 0,-2 z"
         inkscape:connector-curvature="0" />
      <path
         id="path8503"
         style="opacity:0.02999998;fill:#000000;fill-opacity:1;stroke:none"
         transform="translate(0,988.3622)"
         d="m 33,12 -3,6 -30,0 0,2 31,0 3,-6 26.938,0.125 c 1.524,0 3.063,1.533 3.063,3.063 l 0,-2 c 0,-1.529 -1.539,-3.063 -3.063,-3.063 z"
         inkscape:connector-curvature="0" />
      <path
         id="path8505"
         style="color:#000000;opacity:1;fill:#b17621;fill-opacity:1"
         d="m 30.5,1014.36 c -5.118,0 -10.5,5.382 -10.5,12 0,6.618 5.382,12 10.5,12 8.118,0 13.5,-5.382 13.5,-12 0,-6.618 -5.382,-12 -12,-12 z m 2.475,1.688 c 1.119,0.104 2.202,0.359 3.188,0.788 -0.076,0.095 -0.134,0.178 -0.187,0.337 -0.303,0.909 -0.755,0.476 -0.225,1.612 0.53,1.136 0.973,1.43 1.125,0.9 0.152,-0.53 -0.381,-1.278 0.225,-0.975 0.606,0.303 1.055,-0.082 0.6,0.601 -0.455,0.682 -0.445,1.051 -0.975,0.9 -0.53,-0.152 -0.52,0.899 -1.05,1.05 -0.53,0.152 -0.712,-0.229 -0.712,0.15 0,0.379 0.301,0.031 0.225,0.638 -0.023,0.186 -0.016,0.219 -0.038,0.3 -0.498,-0.143 -0.72,-0.221 -1.087,-0.077 -0.379,0.152 -0.825,1.125 -0.825,1.125 0.473,0.473 0.693,0.814 0.862,0.975 -0.106,0.053 -0.233,0.075 -0.337,0.15 -0.758,0.531 -1.348,0.63 -1.575,1.387 -0.227,0.758 -0.15,0.064 -0.15,0.975 0,0.909 -0.23,0.292 0.225,1.125 0.455,0.833 1.57,1.233 2.1,1.687 0.53,0.454 1.077,-0.989 2.138,0.375 1.061,1.363 1.129,0.817 0.75,1.575 -0.379,0.758 -0.748,1.01 -0.9,1.312 -0.152,0.303 0.295,1.348 0.825,1.575 0.011,0 0.026,0 0.038,0 -0.028,0.065 -0.047,0.123 -0.075,0.188 -0.687,0.312 -1.529,0.742 -1.688,0.787 -0.375,0.108 -1.698,0.332 -2.662,0.6 -0.121,0.034 -0.215,0.034 -0.263,0.039 0.12,-0.13 1.068,-0.626 1.537,-0.9 0.643,-0.376 -0.038,-0.338 -0.038,-0.338 0,0 -1.023,-0.114 -3.112,-0.114 -1.045,0 -1.497,0.047 -1.725,0.114 -0.114,0.034 -0.17,0.068 -0.225,0.112 -0.055,0.047 -0.094,0.096 -0.187,0.15 -0.375,0.214 0.22,0.439 -0.262,0.6 -0.362,0.12 -0.404,0 -0.712,-0.226 0.22,-0.219 0.524,-0.483 0.9,-0.938 0.682,-0.825 0.898,-0.675 1.125,-1.425 0.227,-0.75 -1.912,-0.525 -1.912,-0.975 0,-0.45 -0.368,-0.75 -1.05,-1.05 -0.682,-0.3 -0.217,-0.45 -0.975,-0.675 -0.758,-0.224 -1.61,1.125 -1.837,0.675 -0.227,-0.45 0.712,-0.45 0.712,-0.975 0,-0.512 -1.081,0.387 -1.275,-0.263 -0.005,-0.024 -0.034,-0.024 -0.038,-0.039 -0.019,-0.095 -0.007,-0.15 0,-0.224 0.048,-0.539 0.672,-0.75 0.938,-1.275 0.303,-0.599 0.146,0.45 0.525,0.975 0.379,0.525 0.227,-0.675 0,-1.35 -0.227,-0.675 0.145,-0.675 0.675,-1.575 0.53,-0.9 0.525,-1.425 0.525,-2.1 0,-0.675 0.367,-0.749 1.125,-1.425 0.347,-0.309 0.62,-0.579 0.825,-0.825 0.05,-0.024 0.1,-0.024 0.15,-0.039 0.804,-0.322 1.141,-0.804 1.837,-2.25 0.696,-1.446 -0.273,-0.096 -0.488,-0.15 -0.214,-0.053 -0.525,-0.434 -1.275,-0.862 -0.155,-0.088 -0.293,-0.13 -0.412,-0.149 l 1.388,-2.288 c 0.444,-0.12 0.922,-0.202 1.387,-0.263 0.17,0.97 0.075,1.875 0.075,1.875 0,0 -0.262,0.311 -0.262,0.525 0,0.214 1.436,-1.768 1.65,-1.875 0.214,-0.108 0.755,0.568 0.862,-0.45 0.006,-0.059 -0.007,-0.06 0,-0.112 z m 2.025,4.05 c -0.077,-0.024 -0.168,0 -0.262,0.039 0,0.265 -0.103,0.458 -0.15,0.562 -0.028,-0.048 -0.113,-0.112 -0.113,-0.112 -0.114,0.21 -0.359,0.394 -0.113,0.337 0.246,-0.055 0.433,0.096 0.263,-0.112 -0.033,-0.039 -0.017,-0.023 -0.038,-0.039 0.032,0.024 0.092,0.039 0.225,0.039 0.149,0 0.229,0 0.337,0 -0.183,0.135 -0.382,0.193 -0.113,0.263 0.36,0.095 0.525,0.114 0.525,0.039 0,-0.075 -0.112,-0.337 -0.112,-0.337 0.07,-0.029 0.136,-0.064 0.075,-0.188 -0.114,-0.226 -0.294,-0.452 -0.525,-0.487 z m 5.738,0.637 c 0.187,0.291 0.367,0.59 0.525,0.9 -0.104,0.605 -0.369,1.013 0.075,1.013 0.124,0 0.235,-0.027 0.337,-0.039 0.014,0.036 0.024,0.077 0.038,0.112 -0.758,0 -1.121,0.226 -1.5,0.15 -0.379,-0.077 -1.432,-0.144 -0.75,-0.825 0.399,-0.399 0.896,-1.032 1.275,-1.313 z m -4.725,1.388 c 0.07,0.023 0.131,0.095 0.187,0.224 0.227,0.531 0.603,0.974 0.3,1.05 -0.303,0.075 -0.45,0.15 -0.45,0.15 0,0 1.049,0.682 1.125,-0.075 0.076,-0.758 -0.3,-1.201 -0.3,-1.201 0,0 0.523,0.522 0.675,0.825 0.152,0.303 0.146,0 0.525,0.375 0.379,0.378 0.295,-1.506 0.825,-0.975 0.53,0.53 0.864,0.521 0.712,0.9 -0.152,0.379 0.975,-0.458 0.975,0.3 0,0.73 0.466,1.027 -0.45,1.388 -0.347,-0.024 -0.621,-0.082 -0.675,-0.188 -0.152,-0.303 -1.012,-0.075 -1.012,-0.075 -2.266,-0.566 -3.25,-0.746 -3.9,-0.637 0.012,-0.024 0.024,-0.024 0.038,-0.039 0.331,-0.597 0.955,-1.426 0.75,-1.725 0.289,-0.166 0.515,-0.349 0.675,-0.3 z m 6.375,3.787 c 0.007,0.152 0,0.296 0,0.45 0,0.427 -0.026,0.862 -0.075,1.275 -0.682,-0.606 -1.65,-0.6 -1.65,-0.6 0,0 0.592,-0.672 1.425,-0.975 0.104,-0.039 0.216,-0.089 0.3,-0.15 z"
         inkscape:connector-curvature="0" />
    </g>
    <g
       id="g8841"
       transform="matrix(2.851871,0,0,2.851871,650.53167,-2015.4862)">
      <path
         id="path8843"
         style="opacity:0.6;fill:url(#radialGradient3964-50);fill-opacity:1;stroke:none"
         transform="matrix(1.1343284,0,0,1.1428571,-4.8656716,979.79077)"
         d="M 66,56.5 C 66,58.433 51.002,60 32.5,60 13.998,60 -1,58.433 -1,56.5 -1,54.567 13.998,53 32.5,53 51.002,53 66,54.567 66,56.5 Z"
         inkscape:connector-curvature="0" />
      <path
         id="path8845"
         style="fill:#ef6c00;fill-opacity:1;stroke:none"
         d="m 0,997.42 0,42.823 64,0 0,-21.412 -3.048,-18.353 -23.952,-0.118 -3,-6 -30.952,0 C 1.524,994.36 0,995.889 0,997.419 Z"
         inkscape:connector-curvature="0" />
      <rect
         id="rect8847"
         style="fill:#fffdf0;fill-opacity:1;stroke:none"
         y="1002.36"
         x="5"
         height="11.882"
         width="31.570999" />
      <path
         id="path8849"
         style="opacity:0.02999998;fill:#000000;fill-opacity:1;stroke:none"
         transform="translate(0,988.3622)"
         d="M 3.0625,6 C 1.538691,6 0,7.53308 0,9.0625 l 0,2 C 0,9.53308 1.538691,8 3.0625,8 L 33,8 36,14 60.9375,14.125 64,32.46875 l 0,-2 L 60.9375,12.125 37,12 34,6 Z"
         inkscape:connector-curvature="0" />
      <path
         id="path8851"
         style="fill:#ffa726;fill-opacity:1;stroke:none"
         d="m 64,1003.54 0,42.824 -64,0 0,-40 30,0 3,-6 27.952,0.118 c 1.524,0 3.048,1.529 3.048,3.059 z"
         inkscape:connector-curvature="0" />
      <path
         id="path8853"
         style="opacity:0.15;fill:#000000;fill-opacity:1;stroke:none"
         d="m 0,1044.36 0,2 64,0 0,-2 z"
         inkscape:connector-curvature="0" />
      <path
         id="path8855"
         style="opacity:0.02999998;fill:#000000;fill-opacity:1;stroke:none"
         transform="translate(0,988.3622)"
         d="m 33,12 -3,6 -30,0 0,2 31,0 3,-6 26.938,0.125 c 1.524,0 3.063,1.533 3.063,3.063 l 0,-2 c 0,-1.529 -1.539,-3.063 -3.063,-3.063 z"
         inkscape:connector-curvature="0" />
      <path
         id="path8857"
         style="opacity:1;fill:#b17621;fill-opacity:1;fill-rule:nonzero;stroke:none"
         d="m 21.303,1015.28 c -0.771,0.024 -1.499,0.096 -2.233,0.351 -0.231,1.565 0.15,3.188 0.569,4.688 1.067,3.44 3.048,6.705 5.954,8.895 0.107,0.102 0.258,0.124 0.219,0.307 -0.015,0.762 -0.002,1.558 0,2.323 0.031,1.336 0.835,2.612 2.01,3.242 1.399,0.737 2.794,1.42 4.203,2.147 0.648,0.344 1.548,-0.05 1.751,-0.745 0.124,-0.457 0.037,-0.936 0.044,-1.402 -0.005,-0.982 -0.126,-1.967 -0.088,-2.936 1.282,-0.158 2.571,-0.78 3.327,-1.84 0.674,-0.904 0.914,-2.074 0.832,-3.199 1.371,-0.245 2.785,-0.452 4.159,-0.701 0.814,-0.164 1.166,-1.222 0.657,-1.884 -1,-1.268 -2,-2.509 -3.02,-3.768 -0.821,-0.981 -2.106,-1.525 -3.371,-1.358 -0.858,0.138 -1.737,0.323 -2.583,0.483 -2.733,-2.605 -6.406,-4.049 -10.114,-4.469 -0.761,-0.07 -1.55,-0.144 -2.32,-0.132 z m 4.641,2.848 c 0.896,-0.08 1.794,0.168 2.539,0.789 1.491,1.242 1.723,3.459 0.482,4.951 -1.241,1.492 -3.457,1.724 -4.947,0.482 -1.491,-1.242 -1.723,-3.459 -0.482,-4.951 0.621,-0.746 1.512,-1.188 2.408,-1.27 z m 14.317,10.735 c -0.307,-0.028 -0.612,0.205 -0.657,0.526 -0.391,1.778 -1.654,3.322 -3.327,4.03 -0.436,0.138 -0.533,0.722 -0.175,1.01 0.734,0.612 1.583,1.32 2.32,1.928 0.359,0.305 0.826,-0.026 0.832,-0.482 -0.012,-0.373 -0.054,-0.771 -0.088,-1.139 0.914,0.196 1.81,0.457 2.714,0.657 0.426,0.088 0.83,-0.426 0.657,-0.832 -0.358,-0.858 -0.727,-1.688 -1.095,-2.541 0.37,-0.044 0.726,-0.074 1.095,-0.132 0.456,-0.09 0.634,-0.754 0.263,-1.052 -0.739,-0.622 -1.485,-1.223 -2.233,-1.84 -0.088,-0.07 -0.204,-0.122 -0.306,-0.132 z"
         inkscape:connector-curvature="0" />
      <path
         id="path8859"
         style="opacity:1;fill:#b17621;fill-opacity:1;fill-rule:evenodd;stroke:none"
         transform="translate(-0.66828031,988.69392)"
         d="m 29,33 a 2,2 0 1 1 -4,0 2,2 0 1 1 4,0 z"
         inkscape:connector-curvature="0" />
    </g>
    <g
       id="g9692"
       transform="matrix(3.4771207,0,0,3.4771207,81.48487,-2684.2403)">
      <path
         id="path9694"
         style="opacity:0.6;fill:url(#radialGradient3964-2);fill-opacity:1;stroke:none"
         transform="matrix(1.1343284,0,0,1.1428571,-4.8656716,979.79077)"
         d="m 66,56.5 a 33.5,3.5 0 1 1 -67,0 33.5,3.5 0 1 1 67,0 z"
         inkscape:connector-curvature="0" />
      <path
         id="path9696"
         style="fill:#ef6c00;fill-opacity:1;stroke:none"
         d="m 0,997.42 0,42.823 64,0 0,-21.412 -3.048,-18.353 -23.952,-0.118 -3,-6 -30.952,0 C 1.524,994.36 0,995.889 0,997.419 Z"
         inkscape:connector-curvature="0" />
      <rect
         id="rect9698"
         style="fill:#fffdf0;fill-opacity:1;stroke:none"
         y="1002.36"
         x="5"
         height="11.882"
         width="31.570999" />
      <path
         id="path9700"
         style="opacity:0.02999998;fill:#000000;fill-opacity:1;stroke:none"
         transform="translate(0,988.3622)"
         d="M 3.0625,6 C 1.538691,6 0,7.53308 0,9.0625 l 0,2 C 0,9.53308 1.538691,8 3.0625,8 L 33,8 36,14 60.9375,14.125 64,32.46875 l 0,-2 L 60.9375,12.125 37,12 34,6 Z"
         inkscape:connector-curvature="0" />
      <path
         id="path9702"
         style="fill:#ffa726;fill-opacity:1;stroke:none"
         d="m 64,1003.54 0,42.824 -64,0 0,-40 30,0 3,-6 27.952,0.118 c 1.524,0 3.048,1.529 3.048,3.059 z"
         inkscape:connector-curvature="0" />
      <path
         id="path9704"
         style="opacity:0.15;fill:#000000;fill-opacity:1;stroke:none"
         d="m 0,1044.36 0,2 64,0 0,-2 z"
         inkscape:connector-curvature="0" />
      <path
         id="path9706"
         style="opacity:0.02999998;fill:#000000;fill-opacity:1;stroke:none"
         transform="translate(0,988.3622)"
         d="m 33,12 -3,6 -30,0 0,2 31,0 3,-6 26.938,0.125 c 1.524,0 3.063,1.533 3.063,3.063 l 0,-2 c 0,-1.529 -1.539,-3.063 -3.063,-3.063 z"
         inkscape:connector-curvature="0" />
      <g
         id="g9708"
         style="opacity:1">
        <path
           id="path9710"
           style="fill:#b17621;fill-opacity:1"
           d="m 25,1020.36 0,6 c 0,2 2,2 2,2 l 6,0 c 2,0 2,-2 2,-2 l 0,-4 -4,-4 -3.999,0 c 0,0 -2,0 -2,2 z m 2,0 3,0 0,3 3,0 0,3 -6,0 z"
           inkscape:connector-curvature="0" />
        <path
           id="path9712"
           style="opacity:1;fill:#b17621;fill-opacity:1;stroke:none"
           d="m 28,1034.36 -4,4 c -2,2 -2,2 0,2 l 16,0 c 2,0 2,0 0,-2 l -4,-4 0,-2 -8,0 z"
           inkscape:connector-curvature="0" />
        <path
           id="path9714"
           style="opacity:1;fill:#b17621;fill-opacity:1;stroke:none"
           d="m 22,1012.36 c -2.216,0 -4,1.784 -4,4 l 0,14 c 0,2.216 1.784,4 4,4 l 20,0 c 2.216,0 4,-1.784 4,-4 l 0,-14 c 0,-2.216 -1.784,-4 -4,-4 z m 0,4 20,0 0,14 -20,0 z"
           inkscape:connector-curvature="0" />
      </g>
    </g>
    <g
       id="g10013"
       transform="matrix(2.5816862,0,0,2.5816862,815.91673,-1887.7982)">
      <path
         id="path10015"
         style="opacity:0.6;fill:url(#radialGradient3964-4);fill-opacity:1;stroke:none"
         transform="matrix(1.1343284,0,0,1.1428571,-4.8656716,979.79077)"
         d="M 66,56.5 C 66,58.433 51.002,60 32.5,60 13.998,60 -1,58.433 -1,56.5 -1,54.567 13.998,53 32.5,53 51.002,53 66,54.567 66,56.5 Z"
         inkscape:connector-curvature="0" />
      <path
         id="path10017"
         style="fill:#ef6c00;fill-opacity:1;stroke:none"
         d="m 0,997.42 0,42.823 64,0 0,-21.412 -3.048,-18.353 -23.952,-0.118 -3,-6 -30.952,0 C 1.524,994.36 0,995.889 0,997.419 Z"
         inkscape:connector-curvature="0" />
      <rect
         id="rect10019"
         style="fill:#fffdf0;fill-opacity:1;stroke:none"
         y="1002.36"
         x="5"
         height="11.882"
         width="31.570999" />
      <path
         id="path10021"
         style="opacity:0.02999998;fill:#000000;fill-opacity:1;stroke:none"
         transform="translate(0,988.3622)"
         d="M 3.0625,6 C 1.538691,6 0,7.53308 0,9.0625 l 0,2 C 0,9.53308 1.538691,8 3.0625,8 L 33,8 36,14 60.9375,14.125 64,32.46875 l 0,-2 L 60.9375,12.125 37,12 34,6 Z"
         inkscape:connector-curvature="0" />
      <path
         id="path10023"
         style="fill:#ffa726;fill-opacity:1;stroke:none"
         d="m 64,1003.54 0,42.824 -64,0 0,-40 30,0 3,-6 27.952,0.118 c 1.524,0 3.048,1.529 3.048,3.059 z"
         inkscape:connector-curvature="0" />
      <path
         id="path10025"
         style="opacity:0.15;fill:#000000;fill-opacity:1;stroke:none"
         d="m 0,1044.36 0,2 64,0 0,-2 z"
         inkscape:connector-curvature="0" />
      <path
         id="path10027"
         style="opacity:0.02999998;fill:#000000;fill-opacity:1;stroke:none"
         transform="translate(0,988.3622)"
         d="m 33,12 -3,6 -30,0 0,2 31,0 3,-6 26.938,0.125 c 1.524,0 3.063,1.533 3.063,3.063 l 0,-2 c 0,-1.529 -1.539,-3.063 -3.063,-3.063 z"
         inkscape:connector-curvature="0" />
      <g
         id="g10029"
         style="opacity:1"
         transform="matrix(2,0,0,2,9.9999998,-1059.3622)">
        <path
           id="path10031"
           style="fill:#b17621;fill-opacity:1;stroke:none"
           d="m 9,1045.86 a 2.5,2.5 0 0 1 -2.5,2.5 2.5,2.5 0 0 1 -2.5,-2.5 2.5,2.5 0 0 1 2.5,-2.5 2.5,2.5 0 0 1 2.5,2.5 z"
           inkscape:connector-curvature="0" />
        <path
           id="path10033"
           style="fill:#b17621;fill-opacity:1;stroke:none"
           d="m 13,1041.86 a 3.5,3.5 0 0 1 -3.5,3.5 3.5,3.5 0 0 1 -3.5,-3.5 3.5,3.5 0 0 1 3.5,-3.5 3.5,3.5 0 0 1 3.5,3.5 z"
           inkscape:connector-curvature="0" />
        <path
           id="path10035"
           style="fill:#b17621;fill-opacity:1;stroke:none"
           d="m 16,1041.86 a 2.5,2.5 0 0 1 -2.5,2.5 2.5,2.5 0 0 1 -2.5,-2.5 2.5,2.5 0 0 1 2.5,-2.5 2.5,2.5 0 0 1 2.5,2.5 z"
           inkscape:connector-curvature="0" />
        <path
           id="path10037"
           style="fill:#b17621;fill-opacity:1;stroke:none"
           d="m 18,1045.86 a 2.5,2.5 0 0 1 -2.5,2.5 2.5,2.5 0 0 1 -2.5,-2.5 2.5,2.5 0 0 1 2.5,-2.5 2.5,2.5 0 0 1 2.5,2.5 z"
           inkscape:connector-curvature="0" />
        <path
           id="path10039"
           style="fill:#b17621;fill-opacity:1;stroke:none"
           d="m 6,1043.36 10,0 0,5 -10,0 z"
           inkscape:connector-curvature="0" />
      </g>
    </g>
    <g
       id="g10496"
       transform="matrix(3.1329871,0,0,3.1329871,57.086893,-2531.4212)">
      <path
         id="path10498"
         style="opacity:0.6;fill:url(#radialGradient3964-8);fill-opacity:1;stroke:none"
         transform="matrix(1.1343284,0,0,1.1428571,-4.8656716,979.79077)"
         d="m 66,56.5 a 33.5,3.5 0 1 1 -67,0 33.5,3.5 0 1 1 67,0 z"
         inkscape:connector-curvature="0" />
      <path
         id="path10500"
         style="fill:#ef6c00;fill-opacity:1;stroke:none"
         d="m 0,997.42 0,42.823 64,0 0,-21.412 -3.048,-18.353 -23.952,-0.118 -3,-6 -30.952,0 C 1.524,994.36 0,995.889 0,997.419 Z"
         inkscape:connector-curvature="0" />
      <rect
         id="rect10502"
         style="fill:#fffdf0;fill-opacity:1;stroke:none"
         y="1002.36"
         x="5"
         height="11.882"
         width="31.570999" />
      <path
         id="path10504"
         style="opacity:0.02999998;fill:#000000;fill-opacity:1;stroke:none"
         transform="translate(0,988.3622)"
         d="M 3.0625,6 C 1.538691,6 0,7.53308 0,9.0625 l 0,2 C 0,9.53308 1.538691,8 3.0625,8 L 33,8 36,14 60.9375,14.125 64,32.46875 l 0,-2 L 60.9375,12.125 37,12 34,6 Z"
         inkscape:connector-curvature="0" />
      <path
         id="path10506"
         style="fill:#ffa726;fill-opacity:1;stroke:none"
         d="m 64,1003.54 0,42.824 -64,0 0,-40 30,0 3,-6 27.952,0.118 c 1.524,0 3.048,1.529 3.048,3.059 z"
         inkscape:connector-curvature="0" />
      <path
         id="path10508"
         style="opacity:0.15;fill:#000000;fill-opacity:1;stroke:none"
         d="m 0,1044.36 0,2 64,0 0,-2 z"
         inkscape:connector-curvature="0" />
      <path
         id="path10510"
         style="opacity:0.02999998;fill:#000000;fill-opacity:1;stroke:none"
         transform="translate(0,988.3622)"
         d="m 33,12 -3,6 -30,0 0,2 31,0 3,-6 26.938,0.125 c 1.524,0 3.063,1.533 3.063,3.063 l 0,-2 c 0,-1.529 -1.539,-3.063 -3.063,-3.063 z"
         inkscape:connector-curvature="0" />
      <g
         id="g10512"
         style="opacity:1"
         transform="translate(0.99999962,0)">
        <path
           id="path10514"
           style="fill:#b17621;fill-opacity:1;stroke:none"
           d="M -5,8.259 C -5,9.221 -5.816,10 -6.823,10 c -1.01,0 -1.823,-0.78 -1.823,-1.741 0,-0.962 0.816,-1.741 1.823,-1.741 1.01,0 1.823,0.78 1.823,1.741 z"
           transform="matrix(2.1943902,0,0,2.2968937,37.971951,1015.3933)"
           inkscape:connector-curvature="0" />
        <path
           id="path10516"
           style="fill:#b17621;fill-opacity:1;stroke:none"
           transform="matrix(2.1943902,0,0,2.2968937,53.971951,1015.3933)"
           d="M -5,8.259 C -5,9.221 -5.816,10 -6.823,10 c -1.01,0 -1.823,-0.78 -1.823,-1.741 0,-0.962 0.816,-1.741 1.823,-1.741 1.01,0 1.823,0.78 1.823,1.741 z"
           inkscape:connector-curvature="0" />
        <rect
           id="rect10518"
           style="fill:#b17621;fill-opacity:1;stroke:none"
           width="4"
           height="19"
           x="23"
           y="1017.36"
           rx="1.9170001"
           ry="2" />
        <rect
           id="rect10520"
           style="fill:#b17621;fill-opacity:1;stroke:none"
           rx="2"
           y="1016.36"
           x="39"
           height="20"
           width="4" />
        <rect
           id="rect10522"
           style="fill:#b17621;fill-opacity:1;stroke:none"
           width="20"
           height="8"
           x="23"
           y="1014.36"
           rx="4"
           ry="3.8970001" />
      </g>
    </g>
  </g>
</svg>
